<svg width="17" height="17" viewBox="0 0 17 17" fill="none" xmlns="http://www.w3.org/2000/svg">
<path fill-rule="evenodd" clip-rule="evenodd" d="M13.0384 2.94086C12.6259 2.94086 12.2539 3.18937 12.0961 3.5705C11.9382 3.95163 12.0255 4.39033 12.3172 4.68203C12.6089 4.97374 13.0476 5.061 13.4287 4.90313C13.8098 4.74526 14.0583 4.37335 14.0583 3.96082C14.0583 3.39751 13.6017 2.94086 13.0384 2.94086ZM16.9482 4.99777C16.9317 4.29255 16.7996 3.59483 16.5572 2.93236C16.3411 2.36555 16.0047 1.8523 15.5713 1.42793C15.1504 0.992266 14.6359 0.658019 14.0668 0.450479C13.4061 0.200727 12.7076 0.0656255 12.0014 0.0509976C11.1005 0 10.8115 0 8.4996 0C6.18771 0 5.89873 0 4.99777 0.0509976C4.29158 0.0656255 3.59307 0.200727 2.93236 0.450479C2.36431 0.660121 1.85031 0.99408 1.42793 1.42793C0.992266 1.84881 0.658019 2.36326 0.450479 2.93236C0.200727 3.59307 0.0656255 4.29158 0.0509976 4.99777C0 5.89873 0 6.18771 0 8.4996C0 10.8115 0 11.1005 0.0509976 12.0014C0.0656255 12.7076 0.200727 13.4061 0.450479 14.0668C0.658019 14.6359 0.992266 15.1504 1.42793 15.5713C1.85031 16.0051 2.36431 16.3391 2.93236 16.5487C3.59307 16.7985 4.29158 16.9336 4.99777 16.9482C5.89873 16.9992 6.18771 16.9992 8.4996 16.9992C10.8115 16.9992 11.1005 16.9992 12.0014 16.9482C12.7076 16.9336 13.4061 16.7985 14.0668 16.5487C14.6359 16.3412 15.1504 16.0069 15.5713 15.5713C16.0067 15.1485 16.3433 14.6348 16.5572 14.0668C16.7996 13.4044 16.9317 12.7067 16.9482 12.0014C16.9482 11.1005 16.9992 10.8115 16.9992 8.4996C16.9992 6.18771 16.9992 5.89873 16.9482 4.99777ZM15.4183 11.8994C15.4121 12.439 15.3144 12.9735 15.1293 13.4804C14.9936 13.8503 14.7756 14.1845 14.4918 14.4578C14.2161 14.7387 13.8826 14.9563 13.5144 15.0953C13.0075 15.2804 12.473 15.3781 11.9334 15.3843C11.0835 15.4268 10.769 15.4353 8.5336 15.4353C6.29821 15.4353 5.98372 15.4353 5.13376 15.3843C4.57354 15.3948 4.01572 15.3085 3.48484 15.1293C3.13277 14.9832 2.81452 14.7662 2.54988 14.4918C2.26777 14.2188 2.05252 13.8843 1.92091 13.5144C1.7134 13.0003 1.5983 12.4536 1.58093 11.8994C1.58093 11.0495 1.52993 10.735 1.52993 8.4996C1.52993 6.26421 1.52993 5.94972 1.58093 5.09976C1.58474 4.54819 1.68543 4.00157 1.87841 3.48484C2.02805 3.12608 2.25772 2.80628 2.54988 2.54988C2.80811 2.25764 3.12725 2.02554 3.48484 1.86991C4.00293 1.68296 4.54899 1.58524 5.09976 1.58093C5.94972 1.58093 6.26421 1.52993 8.4996 1.52993C10.735 1.52993 11.0495 1.52993 11.8994 1.58093C12.439 1.58711 12.9735 1.68483 13.4804 1.86991C13.8666 2.01326 14.2133 2.24632 14.4918 2.54988C14.7704 2.81097 14.988 3.13018 15.1293 3.48484C15.3182 4.00241 15.416 4.5488 15.4183 5.09976C15.4608 5.94972 15.4693 6.26421 15.4693 8.4996C15.4693 10.735 15.4608 11.0495 15.4183 11.8994ZM8.4996 4.13931C6.09259 4.144 4.14468 6.09824 4.14781 8.50526C4.15094 10.9123 6.10391 12.8615 8.51093 12.8599C10.9179 12.8583 12.8684 10.9066 12.8684 8.4996C12.8707 7.34101 12.4108 6.22934 11.5908 5.41089C10.7708 4.59244 9.65819 4.13478 8.4996 4.13931ZM8.4996 11.33C6.93644 11.33 5.66924 10.0628 5.66924 8.4996C5.66924 6.93644 6.93644 5.66924 8.4996 5.66924C10.0628 5.66924 11.33 6.93644 11.33 8.4996C11.33 9.25027 11.0318 9.97018 10.501 10.501C9.97018 11.0318 9.25027 11.33 8.4996 11.33Z" fill="#2F302C"/>
</svg>
